<svg xmlns="http://www.w3.org/2000/svg" viewBox="0 0 656 546"><defs><style>.cls-1{fill:#c8c8c8;}.cls-2{fill:#c7c7c7;}.cls-3{fill:#828282;}.cls-4{fill:#b3b3b3;}.cls-5{fill:#818181;}.cls-6{fill:#bfbfbf;}</style></defs><g id="Layer_2" data-name="Layer 2"><g id="foreground"><path class="cls-1" d="M0,438c1-5.86,1.94-11.74,3.06-17.59.61-3.17,1.59-6.81,5.78-5.93s4,4.3,3.35,8c-1,5.52-1.25,11.2-2.31,16.71-.49,2.52-1.62,5.51-3.49,6.94-1,.77-4.19-1.31-6.39-2.1Z"/><path class="cls-2" d="M281,454c-1,4.54-1.87,9.1-2.94,13.61-.75,3.12-1.65,6.79-5.89,5.87-3.9-.86-3.3-4.43-2.89-7.44.81-6.09,1.73-12.17,2.54-18.27,1-7.38,3.11-8.27,9.18-3.77Z"/><path class="cls-2" d="M161,546c-.68-2.2-2.5-5-1.73-6.44s4-2.3,6.28-2.51c6.42-.6,12.88-.8,19.33-1.06,3.07-.12,6.31.73,5.71,4.35-.3,1.77-3.23,3.62-5.35,4.44-2.53,1-5.48.86-8.24,1.22Z"/><path class="cls-2" d="M113,546c-.65-2.08-2.45-5.23-1.71-6a10.79,10.79,0,0,1,6.76-2.88c6-.39,12-.19,17.94-.11,7.07.09,8.57,2.85,5,9Z"/><path class="cls-2" d="M113,343c1.91,6.92,1.32,7.69-5.69,8.07-3.45.19-6.88.81-10.33.87-6.89.12-8.45-2.77-5-8.94Z"/><path class="cls-2" d="M269.38,491.37c-.68,1.94-.84,3.18-1.47,4.09-4.07,5.85-8.08,11.76-12.44,17.4-1.88,2.43-4.62,4.24-7.65,1.31-2.83-2.74-.9-5,.87-7.38,4-5.46,7.77-11.17,12-16.51a7.23,7.23,0,0,1,5.28-2.55C267.23,487.81,268.37,490.22,269.38,491.37Z"/><path class="cls-2" d="M90.57,544.79c-8.6-2.19-16.1-3.81-23.35-6.18-1.61-.52-2.36-3.67-3.51-5.61,2.08-.92,4.32-2.87,6.2-2.56a168.21,168.21,0,0,1,20.9,4.8c1.88.56,4.53,3.34,4.35,4.79C94.93,541.84,92.12,543.31,90.57,544.79Z"/><path class="cls-2" d="M35.11,376.44A37,37,0,0,1,33,380.29q-5.91,8.32-11.93,16.56c-1.54,2.1-3,5-6.29,3.11s-3.3-4.91-1.36-7.72c4.23-6.13,8.55-12.22,13.19-18,.92-1.16,3.6-1.56,5.27-1.24C33.13,373.2,34,375.17,35.11,376.44Z"/><path class="cls-2" d="M46.36,528.61c-.48-.11-1.1-.06-1.43-.34-6.78-5.76-13.64-11.44-20.11-17.52-.77-.72.07-4.24,1.22-5.5.7-.77,3.9-.36,5.13.61,6,4.69,11.85,9.65,17.52,14.77a6.29,6.29,0,0,1,1.62,4.7c-.17,1.68-1.53,3.23-2.36,4.83Z"/><path class="cls-2" d="M232.32,521.44c1.31,1.07,3.58,2,3.9,3.44s-.86,4.18-2.13,4.8c-7.28,3.54-14.72,6.8-22.29,9.66-1.32.5-4.26-.89-5.1-2.25-.68-1.08.18-4.54,1.25-5.05C215.69,528.34,223.66,525.13,232.32,521.44Z"/><path class="cls-2" d="M70.08,346.9c2,1.81,4.13,2.79,4.36,4.09.29,1.61-.46,4.53-1.62,5.08-7.49,3.55-15.17,6.72-22.91,9.68-1.08.41-3.8-.69-4.1-1.63-.53-1.61-.37-4.78.6-5.31C54.07,354.62,62,350.89,70.08,346.9Z"/><path class="cls-2" d="M1.9,466.73c1.87-1.89,3.06-4.11,4.43-4.22,1.7-.14,4.65,1.05,5.15,2.38,2.87,7.58,5.3,15.34,7.5,23.14.35,1.23-1,4-2,4.29-1.54.41-4.6-.29-5.09-1.39C8.34,483.15,5.29,475.14,1.9,466.73Z"/><path class="cls-2" d="M77.63,415.69c-3.4.1-5.87-2.95-4.89-5.83a44.91,44.91,0,0,1,13.73-20.44c1.16-1,4.29-.84,5.64.07,1,.7,1.53,4,.79,5.18-4,6.64-8.48,13-12.89,19.43C79.42,415,78.16,415.35,77.63,415.69Z"/><path class="cls-2" d="M212.89,461.14c-1.25,5.29-2.36,10.62-3.8,15.86-.79,2.9-3.16,5-6,3.36-1.54-.89-2.65-4-2.5-6,.42-6.07,1.69-12.08,2.35-18.14.33-3,.65-5.91,4.42-6S212,452.85,212,456c0,1.66,0,3.33,0,5Z"/><path class="cls-2" d="M149.09,516.34c-7.63-3.3-14.52-6.08-21.2-9.3-2.33-1.12-3.7-3.52-1.87-6.28s4.09-2.45,6.94-1.22a182.6,182.6,0,0,0,17.17,6.4c2.88.91,5.51,2.07,4.49,5.22C154,513.08,151.33,514.34,149.09,516.34Z"/><path class="cls-2" d="M68.12,434.45c2.08-2.11,3.38-4.47,5.09-4.82,1.33-.28,4,1.57,4.66,3.09a200.86,200.86,0,0,1,7.44,19.91c.49,1.56-.52,5-1.62,5.35-1.66.6-5.26-.07-5.86-1.28C74.32,449.65,71.45,442.28,68.12,434.45Z"/><path class="cls-2" d="M173.35,512.37c-1.22-1-3.36-1.81-3.66-3.09-.36-1.54.27-4.2,1.44-5.08q8.72-6.52,18-12.22c1.35-.82,4.29-.76,5.37.18s1.62,4.17.82,5.22C189.91,504.61,182.38,509,173.35,512.37Z"/><path class="cls-2" d="M96.31,466.87a31.74,31.74,0,0,1,3.89,2.76c4.87,4.78,9.66,9.65,14.49,14.47,2.12,2.13,3.11,4.4.69,6.95-2.59,2.74-4.73,1.24-6.78-.83-4.92-5-10-9.81-14.7-15a6.11,6.11,0,0,1-1.14-4.86C93.07,469.11,94.9,468.18,96.31,466.87Z"/><path class="cls-3" d="M455.75,318.67a45.94,45.94,0,0,0-1.86,6.06c-.87,5.26-1.5,10.57-2.21,15.8l-4.07,2.14c-3.9-.79-4.55-3.23-4.13-6.18.7-4.81,1.65-9.6,2.24-14.42.53-4.33.64-8.71,1.07-13.05.38-3.72,2.14-5.91,6.47-5.07l2.49,3.59v11.13Z"/><path class="cls-3" d="M245.11,435l-3.82-2.64v-5.7H279.1c.13,2.07.26,4.05.38,5.88l-5,2.46Z"/><path class="cls-3" d="M306.88,435c-5.46-3-5.78-3.81-2.77-8.94h21c-.82,3.15-6.06,3.43-5.05,7.77L318,435Z"/><path class="cls-4" d="M455.75,316.65v0Z"/><path class="cls-3" d="M114,245.34a104.47,104.47,0,0,1,18.88-28c1.83-2,4.35-2.83,6.64-.49s1.3,4.41-.38,6.71c-5.32,7.3-10.38,14.79-15.76,22-1.07,1.43-3.09,3-4.68,3S115.75,246.61,114,245.34Z"/><path class="cls-3" d="M156.84,412.77a90,90,0,0,1-27.42-23.34c2.29-5.72,4.76-6.43,8.43-3.27q10.31,8.86,20.69,17.63C162.53,407.15,162.23,409.89,156.84,412.77Z"/><path class="cls-3" d="M218,344.56c-.09-1.5-.2-2.33-.18-3.16s.16-1.65.24-2.38c2.52-2.75,5-2.07,7.12,0,6.5,6.35,12.91,12.8,19.31,19.26,2,2.07,2.55,4.46.29,6.65s-4.62,1.54-6.67-.49C231.37,357.87,224.69,351.22,218,344.56Z"/><path class="cls-3" d="M414.31,391.61c.71-1.2,1.45-2.67,2.39-4,5.07-7.12,10.27-14.14,15.23-21.32,1.66-2.41,3.26-4.7,6.41-3.1,3.41,1.72,3,4.81,1.2,7.34-5.36,7.72-10.73,15.46-16.59,22.8C419.78,397.31,417.16,396.6,414.31,391.61Z"/><path class="cls-3" d="M365.35,427.26c-.93-1.83-2.66-3.67-2.47-5.28s2.2-3.22,3.81-4c8.39-3.81,16.93-7.29,25.38-11,2.42-1.05,4.78-1.31,6.26,1.08,1.59,2.58.54,4.9-2,6.4A119.27,119.27,0,0,1,365.35,427.26Z"/><path class="cls-5" d="M110.68,330.58c.6,1.77,1.19,3.48,1.78,5.2,2.64,7.77,5.17,15.59,8,23.31,1.47,4.07,1.18,6.78-1.68,7.72-3.64,1.2-5.36-1.27-6.35-4.1-3-8.71-6.11-17.4-8.67-26.25C102.26,331.4,104.61,329.45,110.68,330.58Z"/><path class="cls-3" d="M157.21,204.69V198c9.75-6.43,20.5-10.47,32.55-14.05,1,1.68,3,3.52,2.73,5-.28,1.65-2.32,3.53-4,4.33-8.21,3.8-16.53,7.36-24.91,10.78C161.81,204.72,159.67,204.46,157.21,204.69Z"/><path class="cls-3" d="M318,251.41c-4.08,2.32-6.26,1.38-8.51-.64-6.36-5.73-12.85-11.33-19.33-16.92-2-1.69-3.34-3.58-1.79-6.07s4.3-3.05,6.53-1.19c7.48,6.23,14.86,12.59,22,19.22C318,246.9,317.68,249.64,318,251.41Z"/><path class="cls-5" d="M216.52,432a108.09,108.09,0,0,1-33.86-7.28c-1.19-.46-1.75-2.55-2.4-3.57,1.25-3.71,3.33-4.72,6.48-4,9,2.13,18,4.15,26.94,6.29C219,424.67,219.84,427,216.52,432Z"/><path class="cls-3" d="M353,295.45a21.3,21.3,0,0,1-3.6-2.74c-5.62-6.22-11.1-12.55-16.64-18.83-2-2.24-3.93-4.61-1.13-7.41s5.4-1.06,7.37,1.15c5.91,6.62,11.85,13.23,17.34,20.19C359.11,291.36,357.53,295.24,353,295.45Z"/><path class="cls-3" d="M214.67,236l2.36,4.1c-1.3,1.81-2.51,3.38-3.61,5-4.17,6.25-8.45,12.42-12.37,18.82-1.64,2.66-3.18,5.19-6.55,3.75s-2.79-4.53-1.56-7.33a74.85,74.85,0,0,1,16.31-23.59Z"/><path class="cls-3" d="M348.4,370.94a16,16,0,0,1-2,3.48,71.43,71.43,0,0,1-25,16.66c-3.48,1.36-5.33-.61-6.52-4.71a51.76,51.76,0,0,1,4.45-3.82c6.59-4.55,13.4-8.8,19.86-13.54C343.31,366,345.18,366,348.4,370.94Z"/><path class="cls-3" d="M107.8,306.68c-5.44,1.18-7.32.27-7.42-3.71-.26-11.12,1.51-22,4.69-33.66,2.16.22,4.68-.25,5.92.8s1.51,3.63,1.29,5.43c-.71,5.64-1.93,11.22-2.81,16.84-.49,3.12-.69,6.27-1,9.41C108.25,303.39,108,305,107.8,306.68Z"/><path class="cls-3" d="M188.44,289.69c5.68-1.91,7.46-1.25,8.3,3.23a77.91,77.91,0,0,0,8.61,23.49,6.49,6.49,0,0,1,.17,5.44c-.75,1.28-3.15,1.58-5.13,2.45C193.07,313.28,188.09,302.49,188.44,289.69Z"/><path class="cls-3" d="M360,315.94c4.31-2.33,6.92-2,7.52,1.29a52.57,52.57,0,0,1-4.8,33.2c-5.72.77-8.17-1.11-6.77-5.17a68.37,68.37,0,0,0,3.57-26.71A11.43,11.43,0,0,1,360,315.94Z"/><path class="cls-3" d="M294.69,388.37v5.22c-7.42,3.82-30.66-4.3-35.05-11.83,1.18-4.36,3.36-6.08,6.51-4.16,8.33,5.08,17.42,7.78,26.85,9.72A9.39,9.39,0,0,1,294.69,388.37Z"/><path class="cls-3" d="M252.62,176.83c.14,3,.25,5.11.37,7.62-2.59.37-4.35.73-6.14.85-8.72.55-17.46,1-26.18,1.59-3,.22-5.66-.34-6.1-3.68-.49-3.71,2.14-5.07,5.35-5.14,7-.13,14,0,21-.16C244.55,177.81,248.13,177.26,252.62,176.83Z"/><path class="cls-3" d="M233.94,227.48c-2.85-4.59-2.41-6.54,2.24-8.17,5.81-2.05,11.6-4.38,18.08-3,1.67.35,3.61-.75,5.42-.73,2.73,0,5.45.46,8.62.76l-.29,6.52Z"/><path class="cls-3" d="M314.49,184.69c-2.44.25-4.24.57-6,.58-9.25,0-18.49.14-27.73-.06-5-.11-6.19-2.85-3.16-7.74h36.93Z"/><path class="cls-5" d="M320.05,433.84c-1-4.34,4.23-4.62,5.05-7.77l14.86-.79v5.93C333.54,433.88,326.87,434.31,320.05,433.84Z"/><path d="M212,167V153a32.06,32.06,0,0,0,1-4.57c3.6-42.17,17.85-79.5,50.69-107.71C298.23,11.09,340,2.37,383.94.82H484.06c9.45.72,19,1,28.35,2.25,64.15,8.6,112.76,38.12,133.93,102.45,5.11,15.54,6.54,32.29,9.66,48.48v13a32.06,32.06,0,0,0-1,4.57c-4,45.37-20.13,84.69-57.31,113-33.47,25.5-72.64,33.19-113.59,34.59H383.94c-11.76-1.05-23.63-1.41-35.26-3.28-64.41-10.36-110.46-43.21-129.14-108.07C215.73,194.6,214.45,180.63,212,167ZM462.77,270c32.52-2.37,58.09-20.61,73.39-52.35,15.21-31.55,8.33-61.29-13.94-86.66-18.31-20.85-38.56-40.08-58.79-59.15a78.2,78.2,0,0,0-51.88-21.74c-32.72-1.15-65.94,21-80.32,53.12-13.59,30.38-6.76,63.92,19.06,90.85q24,25.07,49,49.25C415.94,259.58,435.61,269.53,462.77,270Z"/><path class="cls-6" d="M383.94.82c0-.28,0-.55.06-.82H484c0,.27.05.54.06.82Z"/><path class="cls-6" d="M384,320c0-.27-.05-.54-.06-.82H484.06c0,.28,0,.55-.06.82Z"/></g></g></svg>